<?xml version="1.0" standalone="no"?>
<!DOCTYPE svg PUBLIC "-//W3C//DTD SVG 20010904//EN"
 "http://www.w3.org/TR/2001/REC-SVG-20010904/DTD/svg10.dtd">
<svg version="1.0" xmlns="http://www.w3.org/2000/svg"
 width="888.000000pt" height="310.000000pt" viewBox="0 0 888.000000 310.000000"
 preserveAspectRatio="xMidYMid meet">

<g transform="translate(0.000000,310.000000) scale(0.100000,-0.100000)"
fill="#000000" stroke="none">
<path d="M0 2640 l0 -460 458 2 457 3 3 458 2 457 -460 0 -460 0 0 -460z"/>
<path d="M4122 1558 c-11 -29 -118 -305 -237 -613 -120 -308 -220 -568 -223
-578 -4 -16 7 -17 141 -17 l145 0 40 107 40 108 285 3 285 2 39 -107 40 -108
141 -3 c78 -1 142 1 142 6 0 4 -107 287 -239 627 l-239 620 -170 3 -170 2 -20
-52z m302 -473 c53 -148 96 -273 96 -277 0 -5 -92 -8 -205 -8 -113 0 -205 4
-205 9 0 7 166 470 196 544 3 10 10 15 14 10 4 -4 50 -129 104 -278z"/>
<path d="M6450 1382 l0 -229 -42 40 c-135 128 -378 120 -512 -17 -88 -91 -130
-210 -129 -371 1 -217 80 -368 231 -442 51 -25 67 -28 162 -28 123 0 169 16
244 85 l46 43 0 -57 0 -56 120 0 120 0 0 630 0 630 -120 0 -120 0 0 -228z
m-108 -331 c24 -10 58 -30 76 -45 l32 -28 0 -167 0 -167 -32 -31 c-100 -94
-248 -98 -335 -7 -121 125 -86 378 61 445 54 24 142 24 198 0z"/>
<path d="M7245 1281 c-117 -17 -217 -69 -289 -152 -176 -202 -143 -551 66
-705 86 -63 155 -86 269 -92 167 -8 285 35 384 139 176 184 176 494 0 674 -84
86 -182 129 -315 138 -36 3 -87 2 -115 -2z m162 -223 c85 -37 138 -116 149
-224 13 -123 -51 -241 -151 -280 -64 -24 -151 -16 -204 19 -162 107 -144 406
29 481 42 18 139 20 177 4z"/>
<path d="M8272 1280 c-208 -31 -345 -241 -328 -505 10 -155 48 -255 127 -336
73 -75 142 -103 261 -107 87 -3 103 -1 152 21 30 14 75 44 100 67 l46 43 0
-232 0 -231 120 0 120 0 0 630 0 630 -120 0 -120 0 0 -57 0 -57 -42 41 c-24
23 -62 51 -84 62 -36 19 -140 43 -169 40 -5 -1 -34 -5 -63 -9z m266 -238 c90
-44 92 -49 92 -237 l0 -163 -37 -32 c-52 -46 -98 -63 -174 -64 -56 -1 -72 3
-114 29 -72 45 -107 114 -113 222 -4 78 -2 88 27 147 62 127 184 164 319 98z"/>
<path d="M5555 1266 c-57 -18 -83 -33 -137 -78 l-48 -39 0 55 0 56 -120 0
-120 0 0 -455 0 -455 120 0 120 0 0 305 0 304 28 26 c40 37 127 67 200 68 l62
1 0 113 0 113 -32 -1 c-18 0 -51 -6 -73 -13z"/>
<path d="M0 805 l0 -455 1375 0 1375 0 0 455 0 455 -1375 0 -1375 0 0 -455z"/>
</g>
</svg>
