<?xml version="1.0" standalone="no"?>
<!DOCTYPE svg PUBLIC "-//W3C//DTD SVG 20010904//EN"
 "http://www.w3.org/TR/2001/REC-SVG-20010904/DTD/svg10.dtd">
<svg version="1.0" xmlns="http://www.w3.org/2000/svg"
 width="118.000000pt" height="29.000000pt" viewBox="0 0 118.000000 29.000000"
 preserveAspectRatio="xMidYMid meet">

<g transform="translate(0.000000,29.000000) scale(0.100000,-0.100000)"
fill="#000000" stroke="none">
<path d="M37 283 c-20 -20 -4 -33 39 -33 61 0 84 -14 84 -50 0 -30 0 -30 -60
-30 -47 0 -64 -4 -80 -20 -26 -26 -26 -80 -1 -111 17 -21 28 -24 88 -24 104 0
103 -1 103 109 0 109 -11 141 -53 156 -33 11 -110 14 -120 3z m121 -190 c-3
-33 -6 -38 -32 -41 -42 -5 -73 5 -78 26 -10 36 10 52 63 52 l50 0 -3 -37z"/>
<path d="M524 275 c-3 -8 -4 -59 -2 -114 4 -126 16 -142 107 -149 33 -2 72 -1
86 2 l26 7 -3 132 c-3 115 -5 132 -20 135 -16 3 -18 -9 -20 -115 l-3 -118 -48
-3 c-66 -4 -77 7 -77 83 0 94 -10 155 -27 155 -7 0 -16 -7 -19 -15z"/>
<path d="M820 270 c-19 -19 -20 -31 -18 -138 3 -109 4 -117 23 -117 19 0 20 8
25 115 l5 115 30 3 c50 5 59 10 45 27 -19 22 -86 19 -110 -5z"/>
<path d="M1003 280 c-34 -14 -43 -42 -43 -133 0 -118 12 -132 112 -132 58 0
73 3 73 15 0 11 -16 17 -64 21 -37 4 -67 12 -72 20 -16 25 -11 146 7 163 35
35 104 12 104 -34 0 -28 -3 -30 -35 -30 -28 0 -35 -4 -35 -20 0 -18 7 -20 54
-20 30 0 58 5 61 11 11 17 -5 96 -24 120 -19 24 -100 36 -138 19z"/>
<path d="M266 268 c4 -7 23 -34 41 -60 21 -29 31 -53 27 -60 -4 -7 -25 -36
-46 -65 -21 -29 -38 -55 -38 -58 0 -14 37 -2 51 18 8 12 30 43 48 69 l33 46
-43 61 c-26 37 -50 61 -62 61 -12 0 -16 -4 -11 -12z"/>
<path d="M415 90 c-9 -15 2 -44 25 -65 29 -26 44 -9 23 26 -24 40 -39 53 -48
39z"/>
</g>
</svg>
