<?xml version="1.0" encoding="utf-8"?>
<!-- Generator: Adobe Illustrator 19.0.0, SVG Export Plug-In . SVG Version: 6.00 Build 0)  -->
<svg version="1.1" id="layer" xmlns="http://www.w3.org/2000/svg" xmlns:xlink="http://www.w3.org/1999/xlink" x="0px" y="0px"
	 viewBox="-153 -46 652 652" style="enable-background:new -153 -46 652 652;" xml:space="preserve">
<style type="text/css">
	.st0{fill:#06263D;}
	.st1{fill:#F05151;}
	.st2{fill:#FFC647;}
	.st3{fill:#64C5B4;}
</style>
<path class="st0" d="M53.1,255.7v-8.7h-12v73.8h12v-41.3c0-4.5,1.2-9,3.3-12.5c4.2-7.1,9.9-10.1,16.7-9.2c2.8,0.5,5.4-0.2,7.5-2.1
	c2.1-1.9,3.3-4.5,3.3-7.1v-2.8l-0.7-0.2C66.5,241.8,56.9,251.2,53.1,255.7z M26.4,303.5l-2.4-1.7c-1.7-1.2-4-0.9-5.4,0.7
	c-1.9,2.1-4,3.8-6.1,5c-2.8,1.7-6.8,2.4-11.3,2.4s-8.5-1.2-12-3.5c-3.5-2.4-6.4-5.4-8.5-9.7c-2.1-4.2-3.1-9-3.1-14.1
	c0-5.2,0.9-9.9,3.1-14.1c2.1-4,5-7.3,8.5-9.7c3.5-2.4,7.5-3.5,12-3.5c6.4,0,12,2.6,16.3,7.8c1.4,1.7,4,2.1,5.9,0.7l2.1-1.7
	c0.9-0.7,1.4-1.9,1.7-3.1c0-1.2-0.2-2.4-1.2-3.3c-2.8-3.3-6.1-5.9-9.4-7.8c-4.2-2.6-9.4-3.8-15.3-3.8c-6.8,0-13,1.7-18.4,5
	c-5.4,3.3-9.7,7.8-12.7,13.7c-3.1,5.7-4.5,12.5-4.5,19.6s1.7,13.9,4.5,19.6c3.1,5.9,7.3,10.4,12.7,13.7c5.4,3.3,11.6,5,18.6,5
	c5.7,0,11.1-1.2,16-3.8c3.8-1.9,7.1-4.2,9.9-7.1c0.9-0.9,1.2-2.1,1.2-3.3C28.1,305.4,27.6,304.2,26.4,303.5z M137.2,249.1
	c-5.2-3.1-11.1-4.7-17.4-4.7c-6.8,0-13,1.7-18.4,5c-5.4,3.3-9.7,7.8-12.5,13.7c-3.1,5.7-4.5,12.5-4.5,19.6c0,7.1,1.7,13.9,4.5,19.6
	c3.1,5.9,7.3,10.4,12.7,13.7s11.6,5,18.6,5c7.5,0,14.1-1.4,19.6-4.5c4.5-2.4,8.3-5.7,11.3-9.4c0.7-0.9,0.9-2.1,0.7-3.3
	c-0.2-1.2-0.9-2.1-1.9-2.8l-2.4-1.7c-1.9-1.2-4.2-0.7-5.7,0.9c-2.1,2.6-4.5,4.7-7.3,6.4c-3.8,2.1-8.7,3.3-14.4,3.3
	c-7.1,0-12.7-2.4-16.7-7.3c-4-4.7-6.1-10.4-6.8-17H154v-0.7c0-0.9,0.2-2.6,0.2-4.5c0-6.6-1.4-12.7-4.5-18.2
	C146.4,256.6,142.4,252.4,137.2,249.1z M97.2,275.5c1.2-5.7,3.5-10.4,7.3-14.1c4-4,9-5.9,15.3-5.9s11.6,1.7,15.3,5.2
	c3.5,3.3,5.9,8.3,6.8,14.9H97.2z M223.5,255.4c-2.6-3.3-5.9-5.7-9.4-7.8c-4.2-2.4-9.2-3.5-14.4-3.5c-6.8,0-13,1.7-18.4,5
	c-5.4,3.3-9.7,7.8-12.5,13.4c-3.1,5.7-4.5,12.3-4.5,19.6s1.7,14.1,4.5,19.8c3.1,5.9,7.3,10.4,12.7,13.7c5.4,3.3,11.6,5,18.4,5
	c5.2,0,9.9-1.2,14.1-3.5c3.5-1.9,6.6-4.5,9.2-7.5v11.1h12v-75.4h-0.9C228.5,245.1,223.8,249.5,223.5,255.4L223.5,255.4z
	 M223.5,282.5c0,5.2-0.9,9.9-3.1,14.1c-2.1,4-5,7.3-8.5,9.7c-3.5,2.4-7.8,3.5-12.3,3.5c-4.5,0-8.5-1.2-12-3.5
	c-3.5-2.4-6.4-5.4-8.3-9.7c-2.1-4.2-3.1-9-3.1-14.1c0-5.2,0.9-9.9,3.1-13.9c2.1-4,4.7-7.3,8.3-9.7s7.5-3.5,12-3.5
	c4.5,0,8.7,1.2,12.3,3.5c3.5,2.4,6.4,5.4,8.5,9.7C222.4,272.6,223.5,277.4,223.5,282.5z M273,223.6h-0.9c-6.1,0-11.1,5-11.1,11.1
	v11.6h-15.3v11.1H261V321h12v-63.7h16v-11.1h-16L273,223.6L273,223.6z M348.7,249.1c-5.2-3.1-11.1-4.7-17.4-4.7
	c-6.8,0-13,1.7-18.4,5c-5.4,3.3-9.7,7.8-12.5,13.7c-3.1,5.7-4.5,12.5-4.5,19.6c0,7.1,1.7,13.9,4.5,19.6c3.1,5.9,7.3,10.4,12.7,13.7
	c5.4,3.3,11.6,5,18.6,5c7.5,0,14.1-1.4,19.6-4.5c4.5-2.4,8.3-5.7,11.3-9.4c0.7-0.9,0.9-2.1,0.7-3.3c-0.2-1.2-0.9-2.1-1.9-2.8
	l-2.4-1.7c-1.9-1.2-4.2-0.7-5.7,0.9c-2.1,2.6-4.5,4.7-7.3,6.4c-3.8,2.1-8.7,3.3-14.4,3.3c-7.1,0-12.7-2.4-16.7-7.3
	c-4-4.7-6.1-10.4-6.8-17h57.3v-0.7c0-0.9,0.2-2.6,0.2-4.5c0-6.6-1.4-12.7-4.5-18.2C357.9,256.6,353.9,252.4,348.7,249.1z
	 M308.4,275.5c1.2-5.7,3.5-10.4,7.3-14.1c4-4,9-5.9,15.3-5.9s11.6,1.7,15.3,5.2c3.5,3.3,5.9,8.3,6.8,14.9H308.4z M379.1,224.8v96h12
	V213.9h-0.9C384.1,213.9,379.1,218.9,379.1,224.8L379.1,224.8z M457.2,246.2l-21.7,56.3l-22.4-55.9l-0.2-0.5h-12.5l28.5,74.7
	l-9,24.8c-0.5,1.4-0.2,2.8,0.5,4s2.1,1.9,3.5,1.9h5.9l38.4-105.1h-11.1V246.2z"/>
<path class="st0" d="M-95.9,334.9c-4,0-7.5,0.7-11.1,1.9c2.4,3.8,4.7,7.3,6.8,10.1c2.1,3.1,6.8,2.8,8.7-0.2l6.1-9.9
	C-88.6,335.4-92.1,334.9-95.9,334.9z"/>
<path class="st1" d="M-118.1,254.3c7.5,0,13.7-6.1,13.7-13.7s-6.1-13.7-13.7-13.7c-7.5,0-13.7,6.4-13.7,13.7
	C-131.8,248.1-125.6,254.3-118.1,254.3z"/>
<circle class="st2" cx="-74" cy="211.3" r="13.7"/>
<path class="st3" d="M-95.2,297.4c-11.6,0-21.7,5-29,12.7c0.2,0.2,8.5,13.7,14.9,24c4-1.7,8.5-2.6,13-2.6s8.7,0.9,12.5,2.4
	c0,0,14.9-25.7,15.1-25.9C-75.4,301.4-84.8,297.4-95.2,297.4z"/>
<path class="st0" d="M-95.2,297.4c10.4,0,19.8,4,26.9,10.6c4.7-5.9,7.5-13.4,7.5-21.7v-50.7c-19.1,0-34.7,15.6-34.7,34.7V284
	c-1.9-11.8-16.5-21.2-34.4-21.2v34.9c0,4.7,2.1,9,5.4,12.7C-116.9,302.4-106.5,297.4-95.2,297.4z"/>
</svg>
