<?xml version="1.0" standalone="no"?>
<!DOCTYPE svg PUBLIC "-//W3C//DTD SVG 20010904//EN"
 "http://www.w3.org/TR/2001/REC-SVG-20010904/DTD/svg10.dtd">
<svg version="1.0" xmlns="http://www.w3.org/2000/svg"
 width="400.000000pt" height="162.000000pt" viewBox="0 0 400.000000 162.000000"
 preserveAspectRatio="xMidYMid meet">

<g transform="translate(0.000000,162.000000) scale(0.100000,-0.100000)"
fill="#000000" stroke="none">
<path d="M497 1080 c-56 -14 -87 -33 -134 -82 -101 -104 -98 -282 8 -387 114
-113 322 -99 414 28 19 25 35 51 35 58 0 6 -23 19 -51 28 -50 17 -52 17 -62
-1 -47 -83 -157 -105 -236 -46 -81 60 -82 197 -2 264 64 55 177 41 223 -26 12
-17 23 -33 24 -35 7 -8 104 32 104 43 0 7 -16 34 -35 59 -61 79 -187 122 -288
97z"/>
<path d="M1669 1081 c-37 -12 -71 -31 -96 -54 l-23 -20 0 37 0 37 -57 -3 -58
-3 -3 -367 -2 -368 60 0 60 0 0 135 0 136 38 -31 c55 -44 138 -58 213 -37 153
45 230 217 168 381 -43 116 -186 191 -300 157z m111 -123 c59 -31 82 -66 88
-130 5 -68 -14 -117 -62 -153 -47 -35 -124 -40 -176 -9 -42 23 -80 93 -80 144
0 59 38 122 90 148 24 12 56 22 70 22 14 0 46 -10 70 -22z"/>
<path d="M2275 1074 c-21 -8 -49 -24 -61 -35 l-22 -21 -4 28 c-3 28 -6 29 -60
32 l-58 3 0 -271 0 -271 58 3 57 3 5 182 c5 175 6 182 29 207 30 32 89 49 136
40 l35 -6 0 55 c0 48 -3 55 -22 61 -32 8 -48 7 -93 -10z"/>
<path d="M2618 1076 c-189 -51 -260 -298 -128 -448 118 -134 339 -123 443 23
l27 37 -51 21 -51 21 -25 -31 c-35 -41 -74 -59 -128 -59 -59 0 -104 21 -132
63 -48 71 -60 67 181 67 l216 0 0 53 c0 40 -8 70 -31 116 -36 72 -85 113 -162
136 -60 18 -96 18 -159 1z m160 -116 c29 -18 72 -73 72 -92 0 -5 -67 -8 -150
-8 -105 0 -150 3 -150 11 0 24 42 77 73 93 45 22 115 20 155 -4z"/>
<path d="M3172 1071 c-58 -20 -87 -42 -108 -83 -30 -59 -7 -146 48 -182 13 -8
57 -22 98 -31 41 -8 90 -20 108 -26 62 -20 66 -80 6 -105 -67 -28 -134 -13
-162 36 -16 29 -19 31 -62 25 -70 -11 -73 -14 -47 -65 27 -55 71 -85 144 -100
133 -28 276 40 284 135 9 115 -43 160 -216 190 -66 11 -95 31 -95 65 0 23 7
33 30 45 48 25 97 19 131 -14 16 -16 29 -36 29 -44 0 -12 8 -13 56 -1 31 7 58
15 61 17 10 10 -26 75 -56 100 -35 29 -117 57 -165 57 -17 -1 -55 -9 -84 -19z"/>
<path d="M3694 1076 c-88 -28 -143 -99 -131 -172 13 -78 52 -106 183 -134 46
-9 94 -24 108 -34 59 -38 8 -106 -79 -106 -47 0 -88 22 -103 54 -13 28 -28 31
-84 15 -45 -12 -48 -29 -13 -81 49 -73 192 -106 298 -69 122 42 165 176 81
250 -32 28 -63 40 -189 70 -85 21 -109 61 -59 100 50 39 147 17 160 -35 6 -24
9 -25 52 -19 79 12 82 16 58 64 -46 89 -171 132 -282 97z"/>
<path d="M820 1071 c0 -5 48 -127 106 -272 l107 -263 -67 -165 c-104 -258
-103 -255 -154 -259 -58 -4 -187 21 -262 51 -93 38 -164 85 -240 159 l-68 68
-10 -33 c-26 -83 -26 -81 40 -143 139 -128 296 -196 488 -210 101 -8 148 4
183 46 13 15 57 108 97 206 40 99 130 320 201 493 71 172 129 317 129 323 0 5
-26 8 -57 6 l-58 -3 -71 -179 c-39 -98 -75 -185 -80 -194 -7 -10 -31 39 -88
182 l-78 196 -59 0 c-32 0 -59 -4 -59 -9z"/>
</g>
</svg>
