<?xml version="1.0" standalone="no"?>
<!DOCTYPE svg PUBLIC "-//W3C//DTD SVG 20010904//EN"
 "http://www.w3.org/TR/2001/REC-SVG-20010904/DTD/svg10.dtd">
<svg version="1.0" xmlns="http://www.w3.org/2000/svg"
 width="200.000000pt" height="195.000000pt" viewBox="0 0 200.000000 195.000000"
 preserveAspectRatio="xMidYMid meet">

<g transform="translate(0.000000,195.000000) scale(0.100000,-0.100000)"
fill="#000000" stroke="none">
<path d="M867 1855 c7 -49 13 -58 13 -19 0 16 -5 36 -10 44 -6 10 -7 2 -3 -25z"/>
<path d="M906 1875 c4 -8 8 -15 10 -15 2 0 4 7 4 15 0 8 -4 15 -10 15 -5 0 -7
-7 -4 -15z"/>
<path d="M990 1876 c0 -8 9 -20 21 -26 13 -8 18 -17 14 -28 -5 -13 -3 -14 6
-5 9 9 6 19 -15 43 -16 20 -26 26 -26 16z"/>
<path d="M1077 1843 c-9 -51 -2 -53 11 -3 5 22 6 40 2 40 -4 0 -10 -17 -13
-37z"/>
<path d="M765 1845 c4 -11 10 -30 12 -42 3 -13 9 -23 13 -23 11 0 -6 61 -21
74 -9 8 -10 6 -4 -9z"/>
<path d="M1158 1820 c-9 -22 -13 -40 -9 -40 4 0 15 18 24 40 20 52 7 52 -15 0z"/>
<path d="M904 1841 c4 -6 16 -16 28 -22 15 -8 18 -8 14 0 -4 6 -16 16 -28 22
-15 8 -18 8 -14 0z"/>
<path d="M1253 1806 c3 -8 2 -29 -3 -46 -8 -27 -7 -30 5 -20 17 14 20 80 4 80
-6 0 -9 -6 -6 -14z"/>
<path d="M651 1803 c0 -11 59 -56 65 -51 2 3 -11 17 -31 32 -19 15 -35 23 -34
19z"/>
<path d="M600 1765 c1 -12 50 -69 55 -64 1 2 -10 20 -26 39 -16 19 -29 30 -29
25z"/>
<path d="M901 1705 c-48 -28 -55 -30 -45 -14 10 17 -47 -21 -83 -55 -35 -32
-45 -27 -15 8 15 18 14 17 -15 -3 -78 -54 -150 -178 -160 -276 -5 -51 -4 -55
16 -55 17 0 21 6 21 33 0 43 40 154 73 201 l26 39 3 -38 3 -37 45 68 44 69 6
-34 5 -35 29 44 c29 44 84 100 98 100 4 0 -2 -17 -14 -37 -12 -20 -32 -73 -44
-117 l-21 -81 -22 43 c-12 23 -23 42 -26 42 -2 0 -14 -33 -26 -72 -12 -40 -24
-80 -27 -88 -3 -9 -13 3 -27 33 -13 27 -25 44 -29 39 -11 -18 -36 -127 -36
-158 0 -17 -7 -37 -16 -45 -9 -7 -14 -22 -11 -35 2 -14 -2 -25 -9 -28 -22 -8
-16 -45 11 -72 14 -14 34 -43 45 -65 l21 -40 -28 7 c-20 5 -25 4 -18 -5 6 -6
26 -14 45 -17 l34 -7 -22 34 c-27 44 -52 139 -52 197 0 37 2 42 14 33 8 -7 17
-24 21 -38 3 -15 17 -37 31 -50 30 -27 32 -71 4 -81 -19 -7 -19 -8 -2 -42 13
-27 24 -36 48 -38 26 -3 32 0 30 15 -2 28 59 31 76 4 7 -12 20 -21 28 -21 9 0
21 -5 28 -12 9 -9 12 6 12 67 l0 79 43 -42 c23 -23 46 -42 50 -42 4 0 8 28 8
63 1 34 4 75 8 92 l6 30 34 -43 c19 -23 38 -42 43 -42 4 0 8 23 8 50 l0 50 35
0 c32 0 35 2 25 19 -5 11 -10 29 -10 40 0 14 -6 21 -20 21 -38 0 -54 69 -21
92 19 14 19 14 0 57 -14 32 -23 42 -35 37 -9 -3 -22 -6 -29 -6 -8 0 -11 -7 -8
-18 7 -29 -22 -47 -52 -34 -14 7 -25 18 -25 27 0 8 -8 15 -18 15 -18 0 -42 18
-42 31 0 4 43 10 95 14 52 4 95 9 95 12 0 4 -12 21 -26 40 -27 36 -84 77 -123
88 l-24 7 21 -23 c12 -12 31 -23 42 -24 20 -1 80 -51 80 -67 0 -17 -56 -7 -68
12 -15 25 -42 26 -42 1 0 -12 -9 -20 -25 -23 -25 -5 -25 -4 -25 63 0 79 -3 81
-69 44z m69 -383 l0 -54 -99 4 c-55 1 -102 5 -104 8 -3 3 -3 26 0 52 l5 47 42
-52 41 -52 6 30 c4 17 7 53 8 82 2 87 8 91 57 36 39 -44 43 -53 44 -101z"/>
<path d="M1120 1665 c24 -25 53 -45 64 -45 19 0 19 0 0 21 -10 12 -17 24 -15
28 5 7 -58 40 -79 41 -8 0 5 -20 30 -45z"/>
<path d="M1360 1675 c-7 -9 -10 -18 -6 -22 3 -3 6 -1 6 6 0 6 10 16 23 21 15
6 17 9 6 9 -9 1 -22 -6 -29 -14z"/>
<path d="M553 1673 c-24 -2 -43 -7 -43 -11 0 -10 83 -2 95 9 6 6 6 8 0 7 -6
-1 -29 -3 -52 -5z"/>
<path d="M1417 1624 c-10 -13 -14 -24 -9 -24 13 0 35 27 30 39 -1 5 -11 -2
-21 -15z"/>
<path d="M1220 1594 c-40 -14 -40 -18 -6 -100 37 -87 50 -188 37 -282 -5 -43
-14 -88 -19 -102 l-9 -25 -16 31 c-9 17 -22 36 -30 42 -12 10 -15 5 -20 -33
-4 -24 -13 -61 -22 -81 l-15 -36 -27 32 -27 32 -17 -62 c-9 -34 -22 -67 -28
-73 -20 -20 -12 -26 20 -15 16 6 40 23 51 39 24 33 38 37 38 12 0 -14 3 -14
22 3 11 10 34 39 49 62 l28 44 3 -34 3 -33 27 45 c36 60 54 112 62 182 l7 58
-28 -6 c-28 -6 -29 -5 -25 35 2 23 8 44 13 47 15 9 10 61 -7 78 -8 9 -19 14
-23 12 -10 -7 -53 83 -46 95 9 14 41 11 55 -6 7 -8 16 -15 21 -15 16 0 10 18
-13 43 -21 22 -26 23 -58 11z"/>
<path d="M1443 1572 c-18 -9 -33 -19 -33 -24 0 -4 16 0 35 9 19 9 35 20 35 25
0 4 -1 7 -2 7 -2 -1 -18 -9 -35 -17z"/>
<path d="M440 1546 c0 -3 14 -13 31 -22 29 -15 33 -15 48 2 15 17 15 17 -1 5
-13 -10 -22 -9 -47 4 -17 8 -31 13 -31 11z"/>
<path d="M398 1310 c2 -22 6 -40 8 -40 2 0 4 18 4 40 0 22 -3 40 -8 40 -4 0
-6 -18 -4 -40z"/>
<path d="M440 1334 c0 -4 11 -17 25 -30 14 -13 25 -20 25 -15 0 4 -11 17 -25
29 -14 12 -25 19 -25 16z"/>
<path d="M1514 1316 c-3 -8 -4 -23 -2 -33 3 -11 6 -6 9 15 6 34 2 42 -7 18z"/>
<path d="M1366 1267 c-3 -30 -12 -73 -20 -95 -19 -52 -12 -55 9 -5 18 42 36
153 25 153 -4 0 -10 -24 -14 -53z"/>
<path d="M1462 1308 c9 -7 18 -20 21 -28 4 -10 6 -8 6 6 1 12 -6 25 -15 28
-25 9 -29 7 -12 -6z"/>
<path d="M1551 1284 c0 -11 3 -14 6 -6 3 7 2 16 -1 19 -3 4 -6 -2 -5 -13z"/>
<path d="M533 1078 c-7 -8 -10 -17 -7 -20 3 -4 -2 -20 -10 -37 -21 -39 -20
-41 7 -40 15 1 17 3 5 6 -15 4 -15 7 3 38 23 38 24 80 2 53z"/>
<path d="M640 1086 c0 -2 8 -10 18 -17 15 -13 16 -12 3 4 -13 16 -21 21 -21
13z"/>
<path d="M1391 1081 c-11 -7 -6 -10 19 -13 25 -2 38 -10 47 -28 9 -18 13 -20
13 -7 0 20 -34 57 -52 57 -7 0 -19 -4 -27 -9z"/>
<path d="M1347 1024 c-4 -4 3 -12 16 -19 12 -6 34 -19 50 -29 15 -10 27 -14
27 -10 0 5 -10 15 -22 23 -13 8 -32 20 -44 28 -11 7 -24 10 -27 7z"/>
<path d="M770 1001 c0 -4 9 -16 20 -26 16 -14 19 -15 15 -4 -5 13 0 15 24 11
17 -2 36 -10 42 -18 12 -15 49 -19 49 -6 0 5 12 13 28 18 26 11 26 11 -18 17
-88 12 -160 15 -160 8z"/>
<path d="M580 990 c19 -13 30 -13 30 0 0 6 -10 10 -22 10 -19 0 -20 -2 -8 -10z"/>
<path d="M548 955 c-16 -13 -24 -26 -19 -29 4 -3 21 8 36 24 34 36 21 39 -17
5z"/>
<path d="M1310 976 c0 -2 8 -10 18 -17 15 -13 16 -12 3 4 -13 16 -21 21 -21
13z"/>
<path d="M630 903 c-30 -19 -46 -32 -35 -28 46 18 60 12 58 -24 0 -18 2 -29 6
-25 10 11 35 103 30 109 -2 2 -29 -12 -59 -32z m44 2 c-6 -16 -24 -21 -24 -7
0 11 11 22 21 22 5 0 6 -7 3 -15z"/>
<path d="M1350 925 c10 -13 3 -14 -56 -8 l-68 6 39 -46 c22 -26 41 -47 43 -47
5 0 -13 25 -42 58 l-20 23 69 -7 70 -7 -19 22 c-21 23 -35 29 -16 6z"/>
<path d="M1812 913 c11 -3 18 -17 21 -41 l4 -37 1 37 c1 25 7 38 20 41 9 3 -1
5 -23 5 -22 0 -32 -2 -23 -5z"/>
<path d="M1881 878 c2 -36 3 -38 7 -13 5 28 5 28 11 7 3 -13 11 -23 16 -23 6
0 13 10 16 23 6 21 6 21 11 -7 4 -25 5 -23 7 13 1 52 -14 55 -26 5 l-9 -38 -8
38 c-10 50 -26 47 -25 -5z"/>
<path d="M749 843 c-6 -21 -17 -44 -23 -52 -8 -11 -8 -13 3 -10 15 5 54 99 41
99 -5 0 -14 -17 -21 -37z"/>
<path d="M1150 873 c0 -6 7 -16 15 -23 8 -7 12 -16 9 -21 -3 -5 0 -9 7 -9 7 0
21 -7 31 -17 10 -9 20 -14 23 -11 2 2 -16 24 -40 48 -25 24 -45 39 -45 33z"/>
<path d="M1515 870 c-3 -5 1 -10 10 -10 9 0 13 5 10 10 -3 6 -8 10 -10 10 -2
0 -7 -4 -10 -10z"/>
<path d="M807 852 c2 -10 -3 -24 -11 -31 -14 -12 -14 -16 -1 -41 8 -16 19 -32
25 -35 5 -3 1 9 -10 28 -18 30 -19 35 -5 41 16 6 21 41 6 50 -5 4 -7 -2 -4
-12z"/>
<path d="M1658 843 c7 -3 16 -2 19 1 4 3 -2 6 -13 5 -11 0 -14 -3 -6 -6z"/>
<path d="M898 806 c12 -20 18 -44 15 -55 -3 -12 -1 -21 5 -21 5 0 12 14 14 30
3 17 1 30 -4 30 -5 0 -14 11 -20 25 -6 14 -15 25 -21 25 -5 0 0 -15 11 -34z"/>
<path d="M951 817 c-13 -21 -12 -21 5 -5 10 10 16 20 13 22 -3 3 -11 -5 -18
-17z"/>
<path d="M1031 798 c4 -24 8 -46 9 -50 0 -5 4 -8 8 -8 5 0 4 23 -2 50 -5 28
-13 50 -17 50 -3 0 -3 -19 2 -42z"/>
<path d="M1153 800 c0 -25 2 -35 4 -22 2 12 2 32 0 45 -2 12 -4 2 -4 -23z"/>
<path d="M1638 796 c-21 -8 -56 -30 -77 -49 -33 -30 -37 -38 -25 -48 19 -16
18 -54 -3 -75 -16 -15 -16 -17 2 -30 11 -8 44 -14 81 -14 34 0 64 -3 67 -7 2
-5 2 -3 1 4 -2 7 5 14 14 17 37 12 92 78 107 128 22 74 11 88 -68 88 -34 -1
-79 -7 -99 -14z m-24 -173 c-11 -33 -47 -39 -53 -8 -3 16 -1 17 12 7 12 -10
17 -10 23 -1 4 8 3 9 -4 5 -7 -4 -12 -3 -12 3 0 5 4 12 10 16 5 3 6 13 3 23
-5 16 -5 16 13 0 14 -14 16 -23 8 -45z"/>
<path d="M1845 720 c3 -5 8 -10 11 -10 2 0 4 5 4 10 0 6 -5 10 -11 10 -5 0 -7
-4 -4 -10z"/>
<path d="M1500 665 c0 -20 4 -26 18 -23 9 2 17 12 17 23 0 11 -8 21 -17 23
-14 3 -18 -3 -18 -23z"/>
<path d="M866 631 c-3 -5 1 -11 9 -15 11 -4 15 -21 15 -65 l0 -59 -43 1 c-79
3 -129 -52 -106 -120 14 -43 58 -67 102 -57 18 5 55 7 82 6 39 -2 46 0 33 8
-16 10 -18 29 -18 160 l0 150 -34 0 c-19 0 -37 -4 -40 -9z m8 -167 c19 -18 22
-94 4 -112 -17 -17 -53 -15 -69 4 -21 25 -17 93 6 110 24 18 40 18 59 -2z"/>
<path d="M1798 622 c9 -10 19 -17 21 -16 6 5 -20 34 -30 34 -5 0 -1 -8 9 -18z"/>
<path d="M90 600 c19 -14 20 -25 18 -140 -3 -123 -3 -124 -28 -131 -15 -4 11
-7 60 -7 68 0 80 2 58 10 -27 9 -28 12 -28 79 0 68 1 69 26 69 16 0 37 -11 53
-29 l27 -28 -1 58 0 58 -26 -25 c-14 -13 -37 -24 -52 -24 -26 0 -27 2 -27 55
l0 55 48 0 c52 0 88 -19 102 -54 7 -16 9 -11 9 25 l1 45 -130 0 c-119 -1 -128
-2 -110 -16z"/>
<path d="M374 606 c-10 -26 4 -48 28 -44 33 4 33 52 0 56 -13 2 -25 -3 -28
-12z"/>
<path d="M1037 613 c-37 -4 -37 -5 -17 -21 19 -16 21 -26 18 -132 -3 -111 -4
-115 -28 -127 -21 -11 -8 -13 96 -13 108 0 124 2 148 21 37 29 36 79 -3 112
-30 24 -30 25 -10 42 36 34 18 88 -36 111 -33 13 -84 15 -168 7z m133 -23 c23
-12 34 -55 20 -80 -14 -26 -46 -42 -70 -35 -17 5 -20 16 -20 66 0 57 1 59 26
59 14 0 34 -4 44 -10z m30 -146 c38 -45 -3 -118 -64 -112 -31 3 -31 4 -34 66
l-3 62 44 0 c28 0 49 -6 57 -16z"/>
<path d="M375 490 c-22 -4 -33 -8 -24 -9 22 -1 29 -22 29 -81 0 -31 -6 -54
-16 -64 -14 -15 -10 -16 43 -15 32 1 50 3 41 6 -15 4 -18 17 -18 89 0 46 -3
83 -7 83 -5 -1 -26 -5 -48 -9z"/>
<path d="M588 484 c-16 -8 -28 -10 -28 -4 0 5 -19 10 -42 10 -34 -1 -39 -3
-25 -11 13 -8 17 -24 17 -74 0 -50 -4 -66 -17 -74 -14 -8 -4 -10 41 -11 51 0
57 2 42 13 -13 10 -17 24 -14 66 3 61 24 85 56 65 25 -16 30 -114 6 -131 -15
-11 -9 -13 42 -13 45 1 55 3 42 11 -14 8 -18 23 -18 69 0 89 -37 120 -102 84z"/>
<path d="M1335 490 c-28 -4 -35 -7 -23 -12 13 -5 18 -22 20 -75 3 -60 6 -69
29 -82 22 -12 29 -12 57 2 23 11 32 12 32 3 0 -8 14 -10 42 -8 32 3 37 7 25
14 -14 7 -17 24 -17 83 l0 75 -42 0 c-34 -1 -39 -3 -25 -11 26 -15 25 -125 -2
-134 -40 -12 -50 3 -53 78 l-3 72 -40 -5z"/>
<path d="M1602 490 c-35 -14 -48 -54 -29 -84 15 -22 15 -25 1 -37 -11 -9 -14
-23 -11 -46 3 -18 1 -35 -4 -38 -15 -10 -10 -41 9 -58 13 -12 36 -17 74 -17
74 0 108 25 108 80 0 51 -21 63 -99 54 -37 -4 -61 -2 -65 4 -10 16 14 26 52
23 50 -4 84 23 81 64 -4 38 8 57 21 35 7 -12 12 -12 22 -2 21 21 -5 38 -37 24
-17 -8 -33 -8 -51 -2 -30 12 -42 12 -72 0z m63 -60 c0 -53 -27 -69 -46 -26
-17 37 -4 78 24 74 19 -3 22 -9 22 -48z m71 -141 c23 -37 -107 -62 -142 -27
-9 9 -13 21 -10 27 9 14 143 14 152 0z"/>
<path d="M1823 490 c-24 -10 -37 -39 -27 -65 4 -10 31 -28 61 -41 57 -25 66
-47 21 -52 -16 -2 -37 7 -57 24 l-33 27 4 -29 c3 -25 8 -30 45 -37 53 -10 97
8 101 41 5 31 -14 51 -66 73 -25 11 -42 24 -40 32 8 21 39 20 69 -2 l29 -22 0
26 c0 19 -5 25 -22 25 -13 0 -32 2 -43 5 -11 2 -30 0 -42 -5z"/>
<path d="M408 175 c2 -36 7 -65 10 -65 4 0 5 29 4 65 -2 36 -7 65 -10 65 -4 0
-5 -29 -4 -65z"/>
<path d="M1151 224 c0 -11 3 -14 6 -6 3 7 2 16 -1 19 -3 4 -6 -2 -5 -13z"/>
<path d="M1090 151 c0 -32 4 -41 18 -41 13 0 14 2 3 9 -8 6 -12 19 -9 35 3 15
1 29 -3 32 -5 3 -9 -13 -9 -35z"/>
<path d="M455 145 c0 -26 3 -31 13 -23 6 6 12 16 12 23 0 7 -6 17 -12 23 -10
8 -13 3 -13 -23z"/>
<path d="M500 159 c-14 -26 3 -50 34 -48 19 2 19 2 -3 6 -19 4 -22 10 -19 34
5 34 3 36 -12 8z"/>
<path d="M536 165 c4 -8 11 -15 16 -15 6 0 5 6 -2 15 -7 8 -14 15 -16 15 -2 0
-1 -7 2 -15z"/>
<path d="M698 144 c2 -19 7 -34 11 -34 9 0 1 59 -8 64 -4 3 -5 -11 -3 -30z"/>
<path d="M753 150 c2 -26 7 -36 22 -38 18 -4 19 -3 3 10 -9 7 -19 24 -21 38
-3 16 -5 13 -4 -10z"/>
<path d="M798 145 c2 -19 7 -35 11 -35 4 0 5 16 3 35 -2 19 -7 35 -11 35 -4 0
-5 -16 -3 -35z"/>
<path d="M844 168 c-4 -6 1 -17 11 -25 26 -18 45 -16 20 3 -11 8 -19 20 -17
25 3 13 -5 11 -14 -3z"/>
<path d="M875 170 c3 -5 8 -10 11 -10 2 0 4 5 4 10 0 6 -5 10 -11 10 -5 0 -7
-4 -4 -10z"/>
<path d="M956 167 c3 -10 9 -15 12 -12 3 3 0 11 -7 18 -10 9 -11 8 -5 -6z"/>
<path d="M1045 145 c0 -19 3 -35 8 -35 4 0 7 16 7 35 0 19 -3 35 -7 35 -5 0
-8 -16 -8 -35z"/>
<path d="M1187 173 c-13 -12 -7 -22 23 -37 17 -8 30 -10 30 -5 0 5 -12 14 -26
19 -14 6 -22 14 -19 20 7 11 2 13 -8 3z"/>
<path d="M1215 170 c3 -5 8 -10 11 -10 2 0 4 5 4 10 0 6 -5 10 -11 10 -5 0 -7
-4 -4 -10z"/>
<path d="M1304 166 c-11 -28 1 -51 26 -53 l25 -3 -24 10 c-18 8 -22 16 -19 35
6 27 1 33 -8 11z"/>
<path d="M1336 166 c3 -9 11 -16 16 -16 13 0 5 23 -10 28 -7 2 -10 -2 -6 -12z"/>
<path d="M1418 145 c3 -25 9 -35 21 -34 10 0 11 2 4 6 -7 2 -13 18 -13 34 0
16 -4 29 -8 29 -4 0 -6 -16 -4 -35z"/>
<path d="M1467 173 c-13 -12 -7 -22 23 -37 17 -8 30 -10 30 -5 0 5 -12 14 -26
19 -14 6 -22 14 -19 20 7 11 2 13 -8 3z"/>
<path d="M1495 170 c3 -5 8 -10 11 -10 2 0 4 5 4 10 0 6 -5 10 -11 10 -5 0 -7
-4 -4 -10z"/>
<path d="M1545 150 c8 -16 15 -37 15 -47 0 -15 2 -15 9 -4 6 10 5 24 -4 42 -8
14 -11 29 -8 33 4 3 -1 6 -11 6 -15 0 -15 -2 -1 -30z"/>
<path d="M583 146 c1 -16 9 -32 17 -34 12 -4 13 -2 4 9 -7 8 -14 23 -17 34 -4
13 -5 9 -4 -9z"/>
<path d="M914 155 c-10 -24 4 -45 28 -44 l23 0 -24 10 c-17 7 -22 15 -18 29 6
23 -1 27 -9 5z"/>
<path d="M655 130 c-3 -6 1 -13 10 -16 21 -9 26 -2 10 13 -9 8 -16 9 -20 3z"/>
<path d="M1380 127 c0 -10 8 -17 18 -17 9 0 13 4 7 8 -5 4 -13 11 -17 16 -5 5
-8 2 -8 -7z"/>
<path d="M840 120 c0 -5 5 -10 11 -10 5 0 7 5 4 10 -3 6 -8 10 -11 10 -2 0 -4
-4 -4 -10z"/>
<path d="M1510 80 c0 -5 5 -10 10 -10 6 0 10 5 10 10 0 6 -4 10 -10 10 -5 0
-10 -4 -10 -10z"/>
</g>
</svg>
