<svg id="Layer_1" data-name="Layer 1" xmlns="http://www.w3.org/2000/svg" xmlns:xlink="http://www.w3.org/1999/xlink" viewBox="0 0 511.76 511.76"><defs><style>.cls-1{fill:url(#linear-gradient);}.cls-2{fill:url(#linear-gradient-2);}.cls-3{fill:url(#linear-gradient-3);}.cls-4{fill:url(#linear-gradient-4);}.cls-5{fill:url(#linear-gradient-5);}.cls-6{fill:#fff;}</style><linearGradient id="linear-gradient" x1="183" y1="316.27" x2="487.56" y2="316.27" gradientTransform="matrix(1, 0, 0, -1, -0.24, 513.66)" gradientUnits="userSpaceOnUse"><stop offset="0" stop-color="#21d789"/><stop offset="1" stop-color="#07c3f2"/></linearGradient><linearGradient id="linear-gradient-2" x1="-179.38" y1="81.82" x2="447.74" y2="544.76" gradientTransform="matrix(1, 0, 0, -1, -0.24, 513.66)" gradientUnits="userSpaceOnUse"><stop offset="0.01" stop-color="#fcf84a"/><stop offset="0.11" stop-color="#a7eb62"/><stop offset="0.21" stop-color="#5fe077"/><stop offset="0.27" stop-color="#32da84"/><stop offset="0.31" stop-color="#21d789"/><stop offset="0.58" stop-color="#21d789"/><stop offset="0.6" stop-color="#21d789"/><stop offset="0.69" stop-color="#20d68c"/><stop offset="0.76" stop-color="#1ed497"/><stop offset="0.83" stop-color="#19d1a9"/><stop offset="0.9" stop-color="#13ccc2"/><stop offset="0.97" stop-color="#0bc6e1"/><stop offset="1" stop-color="#07c3f2"/></linearGradient><linearGradient id="linear-gradient-3" x1="68.48" y1="-54.07" x2="173.08" y2="274.15" gradientTransform="matrix(1, 0, 0, -1, -0.24, 513.66)" gradientUnits="userSpaceOnUse"><stop offset="0" stop-color="#21d789"/><stop offset="0.16" stop-color="#24d788"/><stop offset="0.3" stop-color="#2fd886"/><stop offset="0.44" stop-color="#41da82"/><stop offset="0.56" stop-color="#5adc7d"/><stop offset="0.69" stop-color="#7ae077"/><stop offset="0.81" stop-color="#a1e36e"/><stop offset="0.93" stop-color="#cfe865"/><stop offset="1" stop-color="#f1eb5e"/></linearGradient><linearGradient id="linear-gradient-4" x1="206.74" y1="231.45" x2="434.35" y2="537.48" gradientTransform="matrix(1, 0, 0, -1, -0.24, 513.66)" gradientUnits="userSpaceOnUse"><stop offset="0" stop-color="#21d789"/><stop offset="0.06" stop-color="#24d788"/><stop offset="0.11" stop-color="#2fd886"/><stop offset="0.16" stop-color="#41da82"/><stop offset="0.21" stop-color="#5add7d"/><stop offset="0.25" stop-color="#79e077"/><stop offset="0.26" stop-color="#7ce076"/><stop offset="0.5" stop-color="#8ce173"/><stop offset="0.92" stop-color="#b2e56b"/></linearGradient><linearGradient id="linear-gradient-5" x1="555.06" y1="192.34" x2="96.43" y2="196.59" gradientTransform="matrix(1, 0, 0, -1, -0.24, 513.66)" gradientUnits="userSpaceOnUse"><stop offset="0.39" stop-color="#fcf84a"/><stop offset="0.54" stop-color="#ecf451"/><stop offset="0.83" stop-color="#c2e964"/><stop offset="0.92" stop-color="#b2e56b"/></linearGradient></defs><title>pycharm</title><polygon class="cls-1" points="358.96 80.42 508.11 205.44 454.74 314.37 364.08 289.51 286.59 289.51 358.96 80.42"/><polygon class="cls-2" points="208.36 161.57 179.12 314.37 176.19 367.01 103.81 398.44 0 409.41 31.44 78.23 218.6 0 334.11 76.03 208.36 161.57"/><polygon class="cls-3" points="208.36 161.57 222.25 456.93 175.46 511.76 0 409.41 144.03 194.47 208.36 161.57"/><polygon class="cls-4" points="401.37 139.64 223.71 139.64 380.9 0 401.37 139.64"/><polygon class="cls-5" points="511.76 457.66 355.31 511.03 147.68 452.54 208.36 161.57 232.49 139.64 358.96 127.94 347.27 255.15 448.16 216.4 511.76 457.66"/><rect x="97.97" y="97.97" width="315.83" height="315.83"/><rect class="cls-6" x="127.94" y="354.58" width="118.44" height="19.74"/><path class="cls-6" d="M126.72,140h53.37c31.43,0,50.44,18.27,50.44,45.32V186c0,30-23.39,46.05-52.64,46.05H156v38.75H127.45V140Zm51.9,65.8c14.62,0,22.67-8.78,22.67-19.74v-.74c0-13.15-8.78-19.73-23.4-19.73H156v40.21Z" transform="translate(-0.24 -0.34)"/><path class="cls-6" d="M242.23,205.78h0c0-37.29,27.78-68,68-68,24.86,0,39.48,8.05,51.91,20.47l-18.28,21.21c-10.24-9.51-20.47-14.63-33.63-14.63-21.93,0-38,18.28-38,40.95V205c0,22.67,15.36,41,38,41,14.62,0,24.13-5.85,34.36-15.36l18.28,18.28c-13.16,14.62-28.51,23.39-53.37,23.39-38.75.74-67.26-29.24-67.26-66.52" transform="translate(-0.24 -0.34)"/></svg>