<?xml version="1.0" standalone="no"?>
<!DOCTYPE svg PUBLIC "-//W3C//DTD SVG 20010904//EN"
 "http://www.w3.org/TR/2001/REC-SVG-20010904/DTD/svg10.dtd">
<svg version="1.0" xmlns="http://www.w3.org/2000/svg"
 width="219.000000pt" height="230.000000pt" viewBox="0 0 219.000000 230.000000"
 preserveAspectRatio="xMidYMid meet">

<g transform="translate(0.000000,230.000000) scale(0.100000,-0.100000)"
fill="#000000" stroke="none">
<path d="M685 1268 c-3 -8 -4 -57 -3 -109 3 -80 6 -94 21 -97 14 -3 17 4 17
43 0 39 3 46 17 43 10 -2 28 -22 41 -46 16 -28 30 -42 44 -42 19 0 19 1 -5 43
l-25 43 24 21 c29 26 31 64 4 88 -27 24 -127 34 -135 13z m114 -36 c15 -28 -5
-52 -44 -52 -33 0 -35 2 -35 35 0 33 2 35 35 35 23 0 38 -6 44 -18z"/>
<path d="M1250 1256 c0 -13 -6 -27 -12 -30 -10 -5 -10 -7 0 -12 8 -4 12 -28
12 -69 0 -66 12 -85 54 -85 23 0 20 27 -4 33 -17 4 -20 14 -20 57 0 43 3 53
20 57 11 3 20 9 20 14 0 5 -9 9 -20 9 -15 0 -20 7 -20 25 0 16 -6 25 -15 25
-9 0 -15 -9 -15 -24z"/>
<path d="M1687 1273 c-4 -3 -7 -14 -7 -24 0 -9 -6 -20 -12 -23 -10 -5 -10 -7
0 -12 7 -3 12 -26 12 -58 0 -30 6 -61 16 -74 17 -25 64 -30 64 -7 0 8 -9 15
-20 15 -18 0 -20 7 -20 60 0 53 2 60 20 60 11 0 20 5 20 10 0 6 -9 10 -20 10
-15 0 -20 7 -20 25 0 24 -18 34 -33 18z"/>
<path d="M870 1203 c-28 -35 -22 -99 10 -125 31 -25 85 -23 112 4 21 21 21 23
4 26 -10 2 -23 -1 -29 -7 -24 -24 -77 -6 -77 26 0 9 19 13 66 13 l66 0 -7 28
c-11 45 -34 62 -81 62 -35 0 -47 -5 -64 -27z m91 -3 c36 -20 23 -40 -26 -40
-48 0 -62 19 -27 39 22 13 29 13 53 1z"/>
<path d="M1060 1210 c-14 -14 -20 -33 -20 -64 0 -71 52 -101 123 -71 15 6 17
1 17 -39 0 -34 4 -46 15 -46 13 0 15 20 15 120 0 100 -2 120 -15 120 -8 0 -15
-5 -15 -10 0 -7 -6 -7 -19 0 -31 16 -79 12 -101 -10z m96 -25 c52 -52 -13
-128 -68 -78 -24 21 -23 58 2 83 26 26 36 25 66 -5z"/>
<path d="M1354 1209 c-12 -13 -19 -35 -19 -61 0 -70 76 -112 133 -72 12 8 22
19 22 25 0 12 -37 12 -45 -1 -9 -14 -48 -13 -63 2 -28 28 -13 38 53 38 57 0
65 2 65 19 0 10 -9 30 -21 45 -27 34 -96 37 -125 5z m87 -9 c36 -20 23 -40
-26 -40 -48 0 -55 9 -29 34 18 19 28 20 55 6z"/>
<path d="M1530 1216 c-23 -29 -8 -59 40 -77 46 -17 59 -41 26 -47 -10 -2 -29
2 -42 9 -31 16 -42 4 -19 -21 23 -26 76 -26 99 -1 32 35 19 53 -63 91 -24 11
-24 28 0 35 16 5 26 2 35 -10 7 -9 20 -15 29 -13 14 3 14 5 0 26 -19 26 -85
31 -105 8z"/>
</g>
</svg>
