<?xml version="1.0" standalone="no"?>
<!DOCTYPE svg PUBLIC "-//W3C//DTD SVG 20010904//EN"
 "http://www.w3.org/TR/2001/REC-SVG-20010904/DTD/svg10.dtd">
<svg version="1.0" xmlns="http://www.w3.org/2000/svg"
 width="400.000000pt" height="400.000000pt" viewBox="0 0 400.000000 400.000000"
 preserveAspectRatio="xMidYMid meet">

<g transform="translate(0.000000,400.000000) scale(0.100000,-0.100000)"
fill="#000000" stroke="none">
<path d="M1770 3764 c-178 -17 -397 -84 -585 -179 -599 -302 -963 -892 -965
-1561 -1 -362 94 -674 298 -984 106 -160 311 -365 472 -473 201 -133 431 -227
670 -273 138 -27 497 -27 625 0 201 42 343 92 500 175 324 170 576 423 739
741 139 273 198 511 198 808 1 417 -131 785 -399 1119 -206 256 -517 463 -843
562 -164 50 -258 63 -465 66 -110 2 -220 1 -245 -1z m811 -356 c140 -480 250
-822 314 -979 81 -200 250 -513 437 -813 63 -100 77 -130 67 -137 -8 -4 -54
-22 -104 -39 -49 -17 -112 -39 -140 -50 -27 -10 -95 -35 -150 -55 -179 -66
-389 -153 -561 -231 -257 -117 -845 -374 -855 -374 -5 0 -25 32 -44 70 -19 39
-41 70 -48 70 -6 0 -81 -34 -166 -75 -84 -41 -157 -75 -161 -75 -4 0 -11 21
-14 47 -9 69 -37 240 -92 568 -36 212 -78 438 -99 530 -8 33 -35 150 -60 260
-33 146 -59 231 -94 315 -49 114 -74 186 -86 246 -6 29 -4 31 42 47 50 16 626
214 793 271 52 18 133 48 180 67 99 39 594 283 725 358 50 28 91 51 92 51 1 0
12 -33 24 -72z"/>
<path d="M2235 3029 c-88 -45 -230 -111 -315 -148 -142 -62 -226 -93 -660
-242 -80 -27 -164 -57 -187 -65 l-43 -16 14 -31 c7 -18 61 -133 119 -257 57
-124 120 -263 140 -310 197 -470 381 -884 402 -908 4 -4 315 131 465 201 262
122 501 222 785 328 44 17 81 31 82 33 2 1 -36 70 -83 152 -107 184 -250 469
-297 589 -40 102 -127 362 -182 540 -63 205 -66 215 -73 214 -4 0 -79 -36
-167 -80z"/>
</g>
</svg>
