<svg xmlns="http://www.w3.org/2000/svg" x="0px" y="0px" width="100" height="100" viewBox="0 0 48 48">
<linearGradient id="qDZfwlfZMEWu1drAJw5oMa_rWQ6Qj4WSwBn_gr1" x1="12" x2="12" y1="-5.404" y2="68.909" gradientUnits="userSpaceOnUse"><stop offset="0" stop-color="#50d18d"></stop><stop offset="1" stop-color="#046a6d"></stop></linearGradient><path fill="url(#qDZfwlfZMEWu1drAJw5oMa_rWQ6Qj4WSwBn_gr1)" d="M15,15H9c-1.105,0-2-0.895-2-2V7c0-1.105,0.895-2,2-2h6c1.105,0,2,0.895,2,2v6 C17,14.105,16.105,15,15,15z"></path><linearGradient id="qDZfwlfZMEWu1drAJw5oMb_rWQ6Qj4WSwBn_gr2" x1="12" x2="12" y1="-5.404" y2="68.909" gradientUnits="userSpaceOnUse"><stop offset="0" stop-color="#50d18d"></stop><stop offset="1" stop-color="#046a6d"></stop></linearGradient><path fill="url(#qDZfwlfZMEWu1drAJw5oMb_rWQ6Qj4WSwBn_gr2)" d="M15,28H9c-1.105,0-2-0.895-2-2v-6 c0-1.105,0.895-2,2-2h6c1.105,0,2,0.895,2,2v6C17,27.105,16.105,28,15,28z"></path><linearGradient id="qDZfwlfZMEWu1drAJw5oMc_rWQ6Qj4WSwBn_gr3" x1="12" x2="12" y1="-5.404" y2="68.909" gradientUnits="userSpaceOnUse"><stop offset="0" stop-color="#50d18d"></stop><stop offset="1" stop-color="#046a6d"></stop></linearGradient><path fill="url(#qDZfwlfZMEWu1drAJw5oMc_rWQ6Qj4WSwBn_gr3)" d="M15,41H9c-1.105,0-2-0.895-2-2v-6 c0-1.105,0.895-2,2-2h6c1.105,0,2,0.895,2,2v6C17,40.105,16.105,41,15,41z"></path><linearGradient id="qDZfwlfZMEWu1drAJw5oMd_rWQ6Qj4WSwBn_gr4" x1="25" x2="25" y1="16.298" y2="37.023" gradientUnits="userSpaceOnUse"><stop offset="0" stop-color="#fed100"></stop><stop offset=".033" stop-color="#fcca00"></stop><stop offset=".221" stop-color="#f3a400"></stop><stop offset=".408" stop-color="#ec8601"></stop><stop offset=".592" stop-color="#e77101"></stop><stop offset=".771" stop-color="#e46401"></stop><stop offset=".941" stop-color="#e36001"></stop></linearGradient><path fill="url(#qDZfwlfZMEWu1drAJw5oMd_rWQ6Qj4WSwBn_gr4)" d="M28,28h-6c-1.105,0-2-0.895-2-2v-6 c0-1.105,0.895-2,2-2h6c1.105,0,2,0.895,2,2v6C30,27.105,29.105,28,28,28z"></path><linearGradient id="qDZfwlfZMEWu1drAJw5oMe_rWQ6Qj4WSwBn_gr5" x1="25" x2="25" y1="-5.404" y2="68.909" gradientUnits="userSpaceOnUse"><stop offset="0" stop-color="#50d18d"></stop><stop offset="1" stop-color="#046a6d"></stop></linearGradient><path fill="url(#qDZfwlfZMEWu1drAJw5oMe_rWQ6Qj4WSwBn_gr5)" d="M28,41h-6c-1.105,0-2-0.895-2-2v-6 c0-1.105,0.895-2,2-2h6c1.105,0,2,0.895,2,2v6C30,40.105,29.105,41,28,41z"></path><linearGradient id="qDZfwlfZMEWu1drAJw5oMf_rWQ6Qj4WSwBn_gr6" x1="38" x2="38" y1="26.255" y2="57.749" gradientUnits="userSpaceOnUse"><stop offset="0" stop-color="#f44f5a"></stop><stop offset=".443" stop-color="#ee3d4a"></stop><stop offset="1" stop-color="#e52030"></stop></linearGradient><path fill="url(#qDZfwlfZMEWu1drAJw5oMf_rWQ6Qj4WSwBn_gr6)" d="M41,41h-6c-1.105,0-2-0.895-2-2v-6 c0-1.105,0.895-2,2-2h6c1.105,0,2,0.895,2,2v6C43,40.105,42.105,41,41,41z"></path>
</svg>