<?xml version="1.0" encoding="UTF-8"?>
<svg width="792px" height="310px" viewBox="0 0 792 310" version="1.1" xmlns="http://www.w3.org/2000/svg" xmlns:xlink="http://www.w3.org/1999/xlink">
    <!-- Generator: Sketch 61.2 (89653) - https://sketch.com -->
    <title>Logo Circles</title>
    <desc>Created with Sketch.</desc>
    <defs>
        <linearGradient x1="98.2302296%" y1="0%" x2="24.0853861%" y2="70.0117874%" id="linearGradient-1">
            <stop stop-color="#F03BE9" offset="0%"></stop>
            <stop stop-color="#647BF3" offset="100%"></stop>
        </linearGradient>
    </defs>
    <g id="Page-1" stroke="none" stroke-width="1" fill="none" fill-rule="evenodd">
        <g id="Desktop-HD-Copy-19" transform="translate(-324.000000, -9035.000000)">
            <g id="Logo-Circles" transform="translate(324.000000, 8981.500000)">
                <g id="Circles" transform="translate(87.000000, 0.000000)" stroke="#FFFFFF">
                    <path d="M309,338.866613 C443.481337,338.866613 552.5,280.445369 552.5,208.379113 C552.5,136.312857 443.481337,77.8916128 309,77.8916128 C174.518663,77.8916128 65.5,136.312857 65.5,208.379113 C65.5,280.445369 174.518663,338.866613 309,338.866613 Z" id="Oval" opacity="0.33547247" stroke-dasharray="10" transform="translate(309.000000, 208.379113) rotate(-15.000000) translate(-309.000000, -208.379113) "></path>
                    <path d="M309,348.379113 C464.468157,348.379113 590.5,285.698978 590.5,208.379113 C590.5,131.059248 464.468157,68.3791128 309,68.3791128 C153.531843,68.3791128 27.5,131.059248 27.5,208.379113 C27.5,285.698978 153.531843,348.379113 309,348.379113 Z" id="Oval-Copy" opacity="0.2" stroke-dasharray="3" transform="translate(309.000000, 208.379113) rotate(15.000000) translate(-309.000000, -208.379113) "></path>
                </g>
                <g id="Logo-new" transform="translate(0.000000, 129.379113)">
                    <path d="M32.96,115.36 L52.64,115.2 L85.6,37.6 L59.68,37.6 L43.04,85.737 L26.4,37.6 L0,37.6 L32.96,115.36 Z M123.64,117.12 C130.146667,117.12 136.12,116 141.56,113.76 C147,111.52 151.64,108.16 155.48,103.68 L155.48,103.68 L142.04,90.24 C139.693333,92.9066667 136.973333,94.9066667 133.88,96.24 C130.786667,97.5733333 127.32,98.24 123.48,98.24 C119.32,98.24 115.72,97.36 112.68,95.6 C109.64,93.84 107.293333,91.3333333 105.64,88.08 C105.157778,87.1311111 104.74588,86.1255093 104.404306,85.0631944 L104.264,84.613 L159.96,84.48 C160.344,82.656 160.62,81.0264 160.788,79.5912 L160.84,79.12 C161,77.5733333 161.08,76.1066667 161.08,74.72 C161.08,67.1466667 159.4,60.4266667 156.04,54.56 C152.68,48.6933333 148.066667,44.1066667 142.2,40.8 C136.333333,37.4933333 129.56,35.84 121.88,35.84 C113.986667,35.84 106.893333,37.6 100.6,41.12 C94.3066667,44.64 89.32,49.4666667 85.64,55.6 C81.96,61.7333333 80.12,68.6933333 80.12,76.48 C80.12,84.2666667 81.9866667,91.2533333 85.72,97.44 C89.4533333,103.626667 94.6,108.453333 101.16,111.92 C107.72,115.386667 115.213333,117.12 123.64,117.12 Z M104.267,67.808 L104.282722,67.7544045 C104.610183,66.6520479 105.009275,65.613913 105.48,64.64 C107.026667,61.44 109.213333,58.96 112.04,57.2 C114.866667,55.44 118.2,54.56 122.04,54.56 C125.666667,54.56 128.733333,55.3333333 131.24,56.88 C133.746667,58.4266667 135.64,60.6666667 136.92,63.6 C137.443636,64.8 137.869091,66.1294215 138.196364,67.5882645 L138.222,67.712 L104.267,67.808 Z M190.32,37.6 L165.84,37.6 L165.84,115.36 L190.32,115.36 L190.32,72.64 C190.32,67.6266667 191.52,63.8666667 193.92,61.36 C196.32,58.8533333 199.546667,57.6 203.6,57.6 C205.626667,57.6 207.44,57.92 209.04,58.56 C210.64,59.2 211.973333,60.1066667 213.04,61.28 L213.04,61.28 L227.6,42.88 C225.466667,40.5333333 222.986667,38.8 220.16,37.68 C217.333333,36.56 214.053333,36 210.32,36 C201.786667,36 195.12,38.5066667 190.32,43.52 L190.32,43.52 L190.32,37.6 Z M253.64,117.44 C263.346667,117.44 271.053333,115.173333 276.76,110.64 C282.466667,106.106667 285.32,100.053333 285.32,92.48 C285.32,87.5733333 284.413333,83.6 282.6,80.56 C280.786667,77.52 278.44,75.0933333 275.56,73.28 C272.68,71.4666667 269.64,70.0266667 266.44,68.96 C263.24,67.8933333 260.2,66.9866667 257.32,66.24 C254.44,65.4933333 252.093333,64.64 250.28,63.68 C248.466667,62.72 247.56,61.44 247.56,59.84 C247.56,58.3466667 248.253333,57.2 249.64,56.4 C251.026667,55.6 253.106667,55.2 255.88,55.2 C258.76,55.2 261.72,55.7866667 264.76,56.96 C267.8,58.1333333 270.546667,60.16 273,63.04 L273,63.04 L286.92,48.96 C283.4,44.48 278.84,41.0933333 273.24,38.8 C267.64,36.5066667 261.533333,35.36 254.92,35.36 C248.626667,35.36 243.133333,36.4266667 238.44,38.56 C233.746667,40.6933333 230.12,43.6 227.56,47.28 C225,50.96 223.72,55.3066667 223.72,60.32 C223.72,65.0133333 224.626667,68.88 226.44,71.92 C228.253333,74.96 230.6,77.3333333 233.48,79.04 C236.36,80.7466667 239.4,82.08 242.6,83.04 C245.8,84 248.84,84.88 251.72,85.68 C254.6,86.48 256.973333,87.3866667 258.84,88.4 C260.706667,89.4133333 261.64,90.88 261.64,92.8 C261.64,94.2933333 260.866667,95.4666667 259.32,96.32 C257.773333,97.1733333 255.56,97.6 252.68,97.6 C248.52,97.6 244.68,96.8266667 241.16,95.28 C237.64,93.7333333 234.6,91.5733333 232.04,88.8 L232.04,88.8 L218.12,102.88 C220.786667,105.76 224.013333,108.293333 227.8,110.48 C231.586667,112.666667 235.693333,114.373333 240.12,115.6 C244.546667,116.826667 249.053333,117.44 253.64,117.44 Z M303.84,26.88 C307.68,26.88 310.826667,25.5733333 313.28,22.96 C315.733333,20.3466667 316.96,17.1733333 316.96,13.44 C316.96,9.6 315.733333,6.4 313.28,3.84 C310.826667,1.28 307.68,9.09494702e-13 303.84,9.09494702e-13 C300,9.09494702e-13 296.826667,1.28 294.32,3.84 C291.813333,6.4 290.56,9.6 290.56,13.44 C290.56,17.1733333 291.813333,20.3466667 294.32,22.96 C296.826667,25.5733333 300,26.88 303.84,26.88 Z M316,115.36 L316,37.6 L291.52,37.6 L291.52,115.36 L316,115.36 Z M363.72,117.12 C371.826667,117.12 379.08,115.333333 385.48,111.76 C391.88,108.186667 396.946667,103.306667 400.68,97.12 C404.413333,90.9333333 406.28,84 406.28,76.32 C406.28,68.64 404.413333,61.7333333 400.68,55.6 C396.946667,49.4666667 391.88,44.64 385.48,41.12 C379.08,37.6 371.826667,35.84 363.72,35.84 C355.613333,35.84 348.36,37.6266667 341.96,41.2 C335.56,44.7733333 330.493333,49.6 326.76,55.68 C323.026667,61.76 321.16,68.64 321.16,76.32 C321.16,84 323.026667,90.9333333 326.76,97.12 C330.493333,103.306667 335.586667,108.186667 342.04,111.76 C348.493333,115.333333 355.72,117.12 363.72,117.12 Z M363.72,94.88 C360.306667,94.88 357.266667,94.1066667 354.6,92.56 C351.933333,91.0133333 349.853333,88.8266667 348.36,86 C346.866667,83.1733333 346.12,80 346.12,76.48 C346.12,72.8533333 346.866667,69.6533333 348.36,66.88 C349.853333,64.1066667 351.933333,61.9466667 354.6,60.4 C357.266667,58.8533333 360.306667,58.08 363.72,58.08 C367.24,58.08 370.306667,58.8533333 372.92,60.4 C375.533333,61.9466667 377.586667,64.08 379.08,66.8 C380.573333,69.52 381.32,72.6933333 381.32,76.32 C381.32,79.9466667 380.6,83.1733333 379.16,86 C377.72,88.8266667 375.666667,91.0133333 373,92.56 C370.333333,94.1066667 367.24,94.88 363.72,94.88 Z M435.84,115.36 L435.84,71.04 C435.84,68.3733333 436.426667,66 437.6,63.92 C438.773333,61.84 440.373333,60.24 442.4,59.12 C444.426667,58 446.773333,57.44 449.44,57.44 C453.28,57.44 456.453333,58.6933333 458.96,61.2 C461.466667,63.7066667 462.72,66.9866667 462.72,71.04 L462.72,71.04 L462.72,115.36 L487.2,115.36 L487.2,65.6 C487.2,60.2666667 485.92,55.36 483.36,50.88 C480.8,46.4 477.306667,42.8 472.88,40.08 C468.453333,37.36 463.36,36 457.6,36 C451.626667,36 446.266667,37.2533333 441.52,39.76 C439.555862,40.7972414 437.769798,42.0125565 436.161807,43.4059453 L435.84,43.691 L435.84,37.6 L411.36,37.6 L411.36,115.36 L435.84,115.36 Z" id="version" fill="#D7D4C9" fill-rule="nonzero"></path>
                    <path d="M583.92,117.12 C592.026667,117.12 599.28,115.333333 605.68,111.76 C612.08,108.186667 617.146667,103.306667 620.88,97.12 C624.613333,90.9333333 626.48,84 626.48,76.32 C626.48,68.64 624.613333,61.7333333 620.88,55.6 C617.146667,49.4666667 612.08,44.64 605.68,41.12 C599.28,37.6 592.026667,35.84 583.92,35.84 C575.813333,35.84 568.56,37.6266667 562.16,41.2 C555.76,44.7733333 550.693333,49.6 546.96,55.68 C543.226667,61.76 541.36,68.64 541.36,76.32 C541.36,84 543.226667,90.9333333 546.96,97.12 C550.693333,103.306667 555.786667,108.186667 562.24,111.76 C568.693333,115.333333 575.92,117.12 583.92,117.12 Z M583.92,94.88 C580.506667,94.88 577.466667,94.1066667 574.8,92.56 C572.133333,91.0133333 570.053333,88.8266667 568.56,86 C567.066667,83.1733333 566.32,80 566.32,76.48 C566.32,72.8533333 567.066667,69.6533333 568.56,66.88 C570.053333,64.1066667 572.133333,61.9466667 574.8,60.4 C577.466667,58.8533333 580.506667,58.08 583.92,58.08 C587.44,58.08 590.506667,58.8533333 593.12,60.4 C595.733333,61.9466667 597.786667,64.08 599.28,66.8 C600.773333,69.52 601.52,72.6933333 601.52,76.32 C601.52,79.9466667 600.8,83.1733333 599.36,86 C597.92,88.8266667 595.866667,91.0133333 593.2,92.56 C590.533333,94.1066667 587.44,94.88 583.92,94.88 Z M656.04,115.36 L656.04,71.04 C656.04,68.3733333 656.626667,66 657.8,63.92 C658.973333,61.84 660.573333,60.24 662.6,59.12 C664.626667,58 666.973333,57.44 669.64,57.44 C673.48,57.44 676.653333,58.6933333 679.16,61.2 C681.666667,63.7066667 682.92,66.9866667 682.92,71.04 L682.92,71.04 L682.92,115.36 L707.4,115.36 L707.4,65.6 C707.4,60.2666667 706.12,55.36 703.56,50.88 C701,46.4 697.506667,42.8 693.08,40.08 C688.653333,37.36 683.56,36 677.8,36 C671.826667,36 666.466667,37.2533333 661.72,39.76 C659.755862,40.7972414 657.969798,42.0125565 656.361807,43.4059453 L656.039,43.692 L656.04,37.6 L631.56,37.6 L631.56,115.36 L656.04,115.36 Z M754.48,117.12 C760.986667,117.12 766.96,116 772.4,113.76 C777.84,111.52 782.48,108.16 786.32,103.68 L786.32,103.68 L772.88,90.24 C770.533333,92.9066667 767.813333,94.9066667 764.72,96.24 C761.626667,97.5733333 758.16,98.24 754.32,98.24 C750.16,98.24 746.56,97.36 743.52,95.6 C740.48,93.84 738.133333,91.3333333 736.48,88.08 C735.997778,87.1311111 735.58588,86.1255093 735.244306,85.0631944 L735.104,84.613 L790.8,84.48 C791.184,82.656 791.46,81.0264 791.628,79.5912 L791.68,79.12 C791.84,77.5733333 791.92,76.1066667 791.92,74.72 C791.92,67.1466667 790.24,60.4266667 786.88,54.56 C783.52,48.6933333 778.906667,44.1066667 773.04,40.8 C767.173333,37.4933333 760.4,35.84 752.72,35.84 C744.826667,35.84 737.733333,37.6 731.44,41.12 C725.146667,44.64 720.16,49.4666667 716.48,55.6 C712.8,61.7333333 710.96,68.6933333 710.96,76.48 C710.96,84.2666667 712.826667,91.2533333 716.56,97.44 C720.293333,103.626667 725.44,108.453333 732,111.92 C738.56,115.386667 746.053333,117.12 754.48,117.12 Z M735.107,67.808 L735.122722,67.7544045 C735.450183,66.6520479 735.849275,65.613913 736.32,64.64 C737.866667,61.44 740.053333,58.96 742.88,57.2 C745.706667,55.44 749.04,54.56 752.88,54.56 C756.506667,54.56 759.573333,55.3333333 762.08,56.88 C764.586667,58.4266667 766.48,60.6666667 767.76,63.6 C768.283636,64.8 768.709091,66.1294215 769.036364,67.5882645 L769.062,67.712 L735.107,67.808 Z" id="one" fill="#D7D4C9" fill-rule="nonzero"></path>
                    <path d="M514.36,89.92 C518.2,89.92 521.346667,88.6133333 523.8,86 C526.253333,83.3866667 527.48,80.2133333 527.48,76.48 C527.48,72.64 526.253333,69.44 523.8,66.88 C521.346667,64.32 518.2,63.04 514.36,63.04 C510.52,63.04 507.346667,64.32 504.84,66.88 C502.333333,69.44 501.08,72.64 501.08,76.48 C501.08,80.2133333 502.333333,83.3866667 504.84,86 C507.346667,88.6133333 510.52,89.92 514.36,89.92 Z" id="Path" fill="url(#linearGradient-1)"></path>
                </g>
            </g>
        </g>
    </g>
</svg>