<?xml version="1.0" standalone="no"?>
<!DOCTYPE svg PUBLIC "-//W3C//DTD SVG 20010904//EN"
 "http://www.w3.org/TR/2001/REC-SVG-20010904/DTD/svg10.dtd">
<svg version="1.0" xmlns="http://www.w3.org/2000/svg"
 width="900.000000pt" height="900.000000pt" viewBox="0 0 900.000000 900.000000"
 preserveAspectRatio="xMidYMid meet">

<g transform="translate(0.000000,900.000000) scale(0.100000,-0.100000)"
fill="#000000" stroke="none">
<path d="M2727 6952 c-977 -977 -1777 -1782 -1777 -1787 0 -11 3545 -3547
3562 -3554 12 -4 1348 1328 1348 1344 0 6 -607 618 -1350 1360 -742 742 -1350
1357 -1350 1365 0 16 1319 1340 1335 1340 13 0 1355 -1342 1355 -1355 0 -5
-224 -234 -497 -507 l-498 -498 676 -676 c593 -593 679 -675 695 -666 10 6
433 425 939 932 l920 920 -1780 1780 c-979 979 -1785 1780 -1790 1780 -6 0
-810 -800 -1788 -1778z"/>
<path d="M1367 3892 c-136 -136 -247 -252 -247 -257 0 -6 763 -773 1695 -1705
l1695 -1695 1695 1695 c932 932 1695 1700 1695 1706 0 9 -375 391 -474 484
l-27 24 -1444 -1444 -1445 -1445 -1443 1443 c-793 793 -1444 1442 -1447 1442
-3 0 -116 -111 -253 -248z"/>
</g>
</svg>
